<?xml version="1.0" encoding="UTF-8"?>
<svg width="96" height="96" viewBox="0 0 96 96" fill="none" xmlns="http://www.w3.org/2000/svg">
  <path d="M48 16C64 16 80 32 80 48C80 64 64 80 48 80C32 80 16 64 16 48C16 32 32 16 48 16Z" stroke="#F3F3F3" stroke-width="4" stroke-linecap="round"/>
  <path d="M48 28C57.941 28 66 36.059 66 46C66 55.941 57.941 64 48 64C38.059 64 30 55.941 30 46C30 36.059 38.059 28 48 28Z" stroke="#F3F3F3" stroke-width="4" stroke-linecap="round"/>
  <path d="M36 48C36 42.4772 41.4772 37 47 37C52.5228 37 58 42.4772 58 48C58 53.5228 52.5228 59 47 59C41.4772 59 36 53.5228 36 48Z" stroke="#F3F3F3" stroke-width="4" stroke-linecap="round"/>
</svg>
